<svg width="287" height="36" viewBox="0 0 287 36" fill="none" xmlns="http://www.w3.org/2000/svg">
<g clip-path="url(#clip0_482_3282)">
<path d="M91.1821 6.44002H71.2648C70.3326 6.44002 69.4386 6.80718 68.7795 7.46073C68.1203 8.11428 67.75 9.00069 67.75 9.92494V14.8038C67.75 15.7281 68.1203 16.6145 68.7795 17.2681C69.4386 17.9216 70.3326 18.2888 71.2648 18.2888H75.8341C76.7562 18.2886 77.6414 18.6478 78.2989 19.2889C78.9564 19.9299 79.3335 20.8014 79.3489 21.7156V26.246C79.3487 27.1603 79.711 28.038 80.3575 28.6899C81.0041 29.3418 81.8831 29.7157 82.8051 29.7309H87.7375C88.6697 29.7309 89.5637 29.3638 90.2229 28.7102C90.882 28.0567 91.2523 27.1703 91.2523 26.246V21.7156C91.2677 20.8014 91.6448 19.9299 92.3023 19.2889C92.9598 18.6478 93.845 18.2886 94.7672 18.2888H99.3364C100.258 18.2735 101.137 17.8996 101.784 17.2477C102.431 16.5958 102.793 15.7181 102.793 14.8038V9.87848C102.793 8.9642 102.431 8.08648 101.784 7.43458C101.137 6.78267 100.258 6.40879 99.3364 6.39355L91.1821 6.44002Z" fill="#FF6099"/>
<path d="M52.4854 0.550781C59.8313 0.550781 61.8582 5.77817 61.8582 11.5399C61.8582 15.0248 61.8582 17.3481 58.9995 19.6714C57.6287 20.833 56.7383 20.1709 56.7383 21.9947C56.7383 23.8185 57.4178 26.4438 59.0815 26.4438C59.6167 26.4256 60.1477 26.3437 60.6632 26.1998C62.2448 26.1998 62.4909 27.5241 62.4909 29.7661C62.4909 30.8464 62.4909 32.159 62.4909 33.6343C62.4909 34.6101 62.1042 35.493 59.5384 35.493C55.0043 35.493 52.6845 32.159 51.7473 28.5231C50.5757 23.9811 49.0877 23.2028 48.7948 23.2028C48.5019 23.2028 48.3965 23.9811 48.3965 24.3644V31.3343C48.3965 33.2858 48.3965 35.249 45.444 35.249H41.9292C39.9609 35.249 39.9609 33.2858 39.9609 31.3343V4.4539C39.9609 2.50234 39.9609 0.550781 42.9134 0.550781H52.4854ZM48.2442 9.23986C48.2442 9.87876 48.2442 11.0056 48.2442 12.0278C48.2442 13.05 48.2442 13.8864 48.2442 14.4789C48.2442 16.0819 48.5371 16.384 50.5054 16.384C52.7314 16.384 53.2235 14.2233 53.2235 12.0278C53.2235 9.8323 52.7314 7.13729 50.5054 7.13729C48.5371 7.13729 48.2442 7.48578 48.2442 9.23986Z" fill="white"/>
<path d="M117.791 31.4621C117.791 33.4137 117.791 35.3652 114.839 35.3652H112.367C109.461 35.3652 109.461 33.4137 109.461 31.4621V4.58172C109.461 2.61855 109.461 0.666992 112.367 0.666992H114.839C117.791 0.666992 117.791 2.61855 117.791 4.58172V31.4621Z" fill="white"/>
<path d="M129.822 0.422852C133.911 0.422852 136.676 1.15469 136.676 2.52542V6.28914C136.676 6.82349 136.476 7.75281 134.801 7.75281H134.403C133.618 7.75281 131.837 7.21845 130.408 7.21845C129.236 7.21845 128.287 7.60179 128.287 9.17001C128.287 10.7382 128.732 11.4933 130.63 13.0267C136.488 17.8242 137.66 21.2395 137.66 25.2007C137.66 27.4542 137.66 29.4987 136.324 31.4038C135.065 33.2124 133.195 34.5146 131.052 35.0746C129.515 35.4268 127.943 35.6061 126.366 35.609C122.722 35.609 119.172 34.9236 119.172 32.972V29.2083C119.172 28.6159 119.664 28.0467 121 28.0467C122.335 28.0467 123.343 28.7785 126.178 28.7785C127.549 28.7785 129.423 27.7098 129.423 26.1881C129.423 25.0264 129.423 24.2365 126.366 21.2975C121.785 16.8601 119.617 14.804 119.617 10.8428C119.617 1.15469 125.862 0.422852 129.822 0.422852Z" fill="white"/>
<path d="M152.001 31.7874C151.907 33.646 151.802 35.3536 149.048 35.3536H146.576C143.624 35.3536 143.624 33.402 143.624 31.4505V9.12374C143.624 7.9621 143.378 7.60199 142.347 7.60199C141.995 7.60199 141.503 7.66007 140.917 7.66007C139.746 7.66007 138.691 7.46259 138.691 6.28934V2.13066C138.691 1.15488 139.781 0.666992 141.035 0.666992H154.637C155.867 0.666992 156.98 1.15488 156.98 2.13066V6.28934C156.98 7.45098 155.996 7.66007 154.766 7.66007C154.414 7.66007 153.969 7.60199 153.383 7.60199C152.212 7.60199 152.048 7.90402 152.048 9.12374L152.001 31.7874Z" fill="white"/>
<path d="M220.059 0.422852C221.231 0.422852 221.934 1.00367 221.934 1.99107V6.28914C221.934 6.77703 221.934 7.45078 220.059 7.45078C219.075 7.45078 219.028 7.35785 218.477 7.35785C213.791 7.35785 213.791 15.803 213.791 17.5687C213.791 19.3344 213.791 28.3139 218.278 28.3139C218.911 28.3139 218.911 28.2209 220.047 28.2209C221.922 28.2209 221.922 29.975 221.922 30.4745V33.7387C221.954 33.9883 221.927 34.2419 221.843 34.4794C221.759 34.7169 221.621 34.932 221.44 35.1076C221.258 35.2833 221.038 35.4147 220.796 35.4916C220.554 35.5685 220.298 35.5888 220.047 35.5509C213.018 35.5509 204.91 32.3796 204.91 17.4641C204.922 3.59413 213.065 0.422852 220.059 0.422852Z" fill="white"/>
<path d="M277.875 16.3027C278.028 16.3027 278.121 16.1633 278.121 15.8148V4.58172C278.121 2.61855 278.121 0.666992 281.086 0.666992H283.546C286.498 0.666992 286.498 2.61855 286.498 4.58172V31.4621C286.498 33.4137 286.498 35.3652 283.546 35.3652C279.106 35.3652 278.766 34.5869 278.075 33.1232L271.525 19.0093C271.373 18.7073 271.221 18.5214 271.127 18.5214C271.033 18.5214 270.928 18.7073 270.928 19.0093V31.4737C270.928 33.4253 270.928 35.3768 267.975 35.3768H265.503C262.551 35.3768 262.551 33.4253 262.551 31.4737V4.58172C262.551 2.61855 262.551 0.666992 265.503 0.666992H268.116C269.744 0.666992 270.295 0.864471 271.033 2.3746L277.383 15.8148C277.582 16.1633 277.735 16.3027 277.875 16.3027Z" fill="white"/>
<path d="M32.8948 34.8422H3.60474C3.07419 34.8422 2.55235 34.7084 2.0883 34.4534C1.62425 34.1984 1.23325 33.8305 0.952052 33.3845C0.670857 32.9384 0.508715 32.4287 0.480873 31.9034C0.453031 31.3781 0.560405 30.8544 0.792896 30.3815L15.4496 2.93192C15.7066 2.4094 16.1064 1.96899 16.6036 1.6609C17.1007 1.35281 17.6752 1.18945 18.2615 1.18945C18.8478 1.18945 19.4223 1.35281 19.9194 1.6609C20.4166 1.96899 20.8164 2.4094 21.0733 2.93192L35.7067 30.3815C35.9392 30.8544 36.0465 31.3781 36.0187 31.9034C35.9908 32.4287 35.8287 32.9384 35.5475 33.3845C35.2663 33.8305 34.8753 34.1984 34.4113 34.4534C33.9472 34.7084 33.4254 34.8422 32.8948 34.8422Z" fill="#8B8BFF"/>
<path d="M187.957 34.8422H158.667C158.137 34.8422 157.615 34.7084 157.151 34.4534C156.687 34.1984 156.296 33.8305 156.015 33.3845C155.733 32.9384 155.571 32.4287 155.543 31.9034C155.516 31.3781 155.623 30.8544 155.855 30.3815L170.5 2.93192C170.757 2.4094 171.157 1.96899 171.654 1.6609C172.152 1.35281 172.726 1.18945 173.312 1.18945C173.899 1.18945 174.473 1.35281 174.97 1.6609C175.467 1.96899 175.867 2.4094 176.124 2.93192L190.757 30.3815C190.99 30.8535 191.097 31.3761 191.07 31.9005C191.042 32.4249 190.881 32.9338 190.601 33.3795C190.322 33.8253 189.932 34.1934 189.47 34.4492C189.007 34.705 188.487 34.8402 187.957 34.8422Z" fill="#6CE720"/>
<path d="M241.23 35.3188C250.865 35.3188 258.676 27.5747 258.676 18.0219C258.676 8.46915 250.865 0.725098 241.23 0.725098C231.596 0.725098 223.785 8.46915 223.785 18.0219C223.785 27.5747 231.596 35.3188 241.23 35.3188Z" fill="#FFE920"/>
</g>
<defs>
<clipPath id="clip0_482_3282">
<rect width="286" height="35.1861" fill="white" transform="translate(0.5 0.422852)"/>
</clipPath>
</defs>
</svg>
