<svg width="193" height="25" viewBox="0 0 193 25" fill="none" xmlns="http://www.w3.org/2000/svg">
<g clip-path="url(#clip0_444_3721)">
<path d="M61.1954 4.60433H47.7547C47.1256 4.60433 46.5223 4.85476 46.0775 5.30054C45.6327 5.74632 45.3828 6.35092 45.3828 6.98135V10.3092C45.3828 10.9396 45.6327 11.5442 46.0775 11.99C46.5223 12.4358 47.1256 12.6862 47.7547 12.6862H50.8381C51.4604 12.6861 52.0578 12.9311 52.5015 13.3683C52.9452 13.8056 53.1997 14.4001 53.21 15.0236V18.1137C53.2099 18.7374 53.4544 19.336 53.8907 19.7807C54.327 20.2253 54.9202 20.4804 55.5424 20.4908H58.8709C59.5 20.4908 60.1033 20.2403 60.5481 19.7945C60.9929 19.3488 61.2428 18.7442 61.2428 18.1137V15.0236C61.2532 14.4001 61.5076 13.8056 61.9513 13.3683C62.395 12.9311 62.9924 12.6861 63.6147 12.6862H66.6981C67.3203 12.6758 67.9135 12.4208 68.3498 11.9761C68.7861 11.5315 69.0306 10.9328 69.0305 10.3092V6.94965C69.0306 6.32603 68.7861 5.72736 68.3498 5.2827C67.9135 4.83804 67.3203 4.58303 66.6981 4.57263L61.1954 4.60433Z" fill="#FF6099"/>
<path d="M35.0807 0.587158C40.0379 0.587158 41.4057 4.15269 41.4057 8.0827C41.4057 10.4597 41.4057 12.0444 39.4766 13.6291C38.5516 14.4214 37.9507 13.9698 37.9507 15.2138C37.9507 16.4577 38.4093 18.2484 39.5319 18.2484C39.8931 18.2361 40.2514 18.1802 40.5993 18.082C41.6666 18.082 41.8327 18.9853 41.8327 20.5145C41.8327 21.2514 41.8327 22.1467 41.8327 23.153C41.8327 23.8186 41.5718 24.4208 39.8403 24.4208C36.7806 24.4208 35.2151 22.1467 34.5826 19.6667C33.792 16.5687 32.7879 16.0378 32.5902 16.0378C32.3926 16.0378 32.3214 16.5687 32.3214 16.8301V21.5842C32.3214 22.9153 32.3214 24.2544 30.329 24.2544H27.9572C26.6289 24.2544 26.6289 22.9153 26.6289 21.5842V3.24942C26.6289 1.91829 26.6289 0.587158 28.6213 0.587158H35.0807ZM32.2186 6.51387C32.2186 6.94965 32.2186 7.71822 32.2186 8.41548C32.2186 9.11274 32.2186 9.68323 32.2186 10.0873C32.2186 11.1808 32.4163 11.3868 33.7446 11.3868C35.2467 11.3868 35.5788 9.91301 35.5788 8.41548C35.5788 6.91796 35.2467 5.07973 33.7446 5.07973C32.4163 5.07973 32.2186 5.31743 32.2186 6.51387Z" fill="#151223"/>
<path d="M79.1487 21.6714C79.1487 23.0025 79.1487 24.3336 77.1563 24.3336H75.4881C73.5273 24.3336 73.5273 23.0025 73.5273 21.6714V3.3366C73.5273 1.99754 73.5273 0.666412 75.4881 0.666412H77.1563C79.1487 0.666412 79.1487 1.99754 79.1487 3.3366V21.6714Z" fill="#151223"/>
<path d="M87.2688 0.5C90.0281 0.5 91.894 0.999175 91.894 1.93414V4.50132C91.894 4.8658 91.7596 5.49967 90.629 5.49967H90.3602C89.8305 5.49967 88.6287 5.13519 87.6641 5.13519C86.8735 5.13519 86.2331 5.39667 86.2331 6.46633C86.2331 7.53599 86.5336 8.05101 87.8144 9.0969C91.7675 12.3693 92.5581 14.6987 92.5581 17.4006C92.5581 18.9378 92.5581 20.3323 91.6568 21.6317C90.8073 22.8654 89.5453 23.7535 88.099 24.1355C87.0618 24.3758 86.001 24.498 84.9365 24.5C82.4776 24.5 80.082 24.0325 80.082 22.7014V20.1342C80.082 19.7301 80.4141 19.3419 81.3154 19.3419C82.2167 19.3419 82.8967 19.841 84.81 19.841C85.735 19.841 87 19.1121 87 18.0741C87 17.2818 87 16.743 84.9365 14.7384C81.8451 11.7116 80.3825 10.3092 80.3825 7.6073C80.3825 0.999175 84.5965 0.5 87.2688 0.5Z" fill="#151223"/>
<path d="M102.235 21.8932C102.172 23.161 102.101 24.3257 100.243 24.3257H98.5748C96.5824 24.3257 96.5825 22.9946 96.5825 21.6634V6.43465C96.5825 5.64231 96.4164 5.39669 95.7207 5.39669C95.4835 5.39669 95.1514 5.4363 94.7561 5.4363C93.9655 5.4363 93.2539 5.30161 93.2539 4.50134V1.66476C93.2539 0.999195 93.9892 0.666412 94.8352 0.666412H104.014C104.845 0.666412 105.596 0.999195 105.596 1.66476V4.50134C105.596 5.29368 104.931 5.4363 104.101 5.4363C103.864 5.4363 103.564 5.39669 103.168 5.39669C102.378 5.39669 102.267 5.60269 102.267 6.43465L102.235 21.8932Z" fill="#151223"/>
<path d="M148.164 0.5C148.955 0.5 149.429 0.89617 149.429 1.56966V4.50132C149.429 4.8341 149.429 5.29366 148.164 5.29366C147.5 5.29366 147.468 5.23027 147.097 5.23027C143.934 5.23027 143.934 10.9906 143.934 12.1949C143.934 13.3993 143.934 19.5241 146.962 19.5241C147.389 19.5241 147.389 19.4607 148.156 19.4607C149.421 19.4607 149.421 20.6571 149.421 20.9979V23.2243C149.443 23.3946 149.425 23.5675 149.368 23.7295C149.312 23.8915 149.219 24.0382 149.096 24.158C148.973 24.2778 148.825 24.3675 148.662 24.42C148.499 24.4724 148.326 24.4863 148.156 24.4604C143.413 24.4604 137.941 22.2973 137.941 12.1236C137.949 2.66309 143.444 0.5 148.164 0.5Z" fill="#151223"/>
<path d="M187.181 11.3313C187.284 11.3313 187.347 11.2362 187.347 10.9985V3.3366C187.347 1.99754 187.347 0.666412 189.348 0.666412H191.008C193 0.666412 193 1.99754 193 3.3366V21.6714C193 23.0025 193 24.3336 191.008 24.3336C188.011 24.3336 187.782 23.8028 187.316 22.8044L182.896 13.1775C182.793 12.9715 182.69 12.8447 182.627 12.8447C182.564 12.8447 182.493 12.9715 182.493 13.1775V21.6793C182.493 23.0104 182.493 24.3416 180.5 24.3416H178.832C176.84 24.3416 176.84 23.0104 176.84 21.6793V3.3366C176.84 1.99754 176.84 0.666412 178.832 0.666412H180.595C181.694 0.666412 182.066 0.80111 182.564 1.83115L186.849 10.9985C186.984 11.2362 187.086 11.3313 187.181 11.3313Z" fill="#151223"/>
<path d="M21.861 23.977H2.09535C1.73732 23.977 1.38517 23.8858 1.07202 23.7118C0.758865 23.5379 0.495004 23.287 0.305247 22.9827C0.11549 22.6784 0.00607237 22.3308 -0.012716 21.9725C-0.0315044 21.6142 0.0409539 21.257 0.197845 20.9344L10.0886 2.21143C10.262 1.85503 10.5318 1.55463 10.8673 1.34449C11.2028 1.13434 11.5905 1.02292 11.9861 1.02292C12.3817 1.02292 12.7694 1.13434 13.1049 1.34449C13.4404 1.55463 13.7102 1.85503 13.8836 2.21143L23.7585 20.9344C23.9154 21.257 23.9879 21.6142 23.9691 21.9725C23.9503 22.3308 23.8409 22.6784 23.6511 22.9827C23.4614 23.287 23.1975 23.5379 22.8844 23.7118C22.5712 23.8858 22.2191 23.977 21.861 23.977Z" fill="#8B8BFF"/>
<path d="M126.502 23.977H106.736C106.378 23.977 106.026 23.8858 105.713 23.7118C105.399 23.5379 105.136 23.287 104.946 22.9827C104.756 22.6784 104.647 22.3308 104.628 21.9725C104.609 21.6142 104.682 21.257 104.838 20.9344L114.721 2.21143C114.895 1.85503 115.165 1.55463 115.5 1.34449C115.836 1.13434 116.223 1.02292 116.619 1.02292C117.014 1.02292 117.402 1.13434 117.738 1.34449C118.073 1.55463 118.343 1.85503 118.516 2.21143L128.391 20.9344C128.548 21.2564 128.62 21.6129 128.602 21.9705C128.584 22.3282 128.475 22.6753 128.286 22.9794C128.097 23.2834 127.834 23.5345 127.522 23.709C127.21 23.8834 126.859 23.9757 126.502 23.977Z" fill="#6CE720"/>
<path d="M162.452 24.3019C168.954 24.3019 174.225 19.0198 174.225 12.5039C174.225 5.98812 168.954 0.705994 162.452 0.705994C155.95 0.705994 150.68 5.98812 150.68 12.5039C150.68 19.0198 155.95 24.3019 162.452 24.3019Z" fill="#FFE920"/>
</g>
<defs>
<clipPath id="clip0_444_3721">
<rect width="193" height="24" fill="white" transform="translate(0 0.5)"/>
</clipPath>
</defs>
</svg>
