<svg width="470" height="410" viewBox="0 0 470 410" fill="none" xmlns="http://www.w3.org/2000/svg">
<path d="M358.721 18.6554H296.373C293.556 18.7297 290.875 19.8833 288.883 21.8784C286.89 23.8735 285.738 26.558 285.664 29.3785V44.8389C285.711 47.6974 286.866 50.4255 288.885 52.447C290.904 54.4684 293.629 55.625 296.483 55.6722H310.786C313.705 55.6722 316.503 56.8329 318.566 58.899C320.63 60.9651 321.789 63.7673 321.789 66.6892V81.0111C321.844 83.8383 322.983 86.536 324.97 88.5458C326.956 90.5555 329.639 91.7234 332.461 91.8077H347.902C350.788 91.8081 353.559 90.6727 355.618 88.6461C357.676 86.6196 358.856 83.8643 358.904 80.9744V66.6524C358.904 63.7306 360.063 60.9284 362.127 58.8623C364.19 56.7962 366.989 55.6355 369.907 55.6355H384.21C387.097 55.6359 389.868 54.5004 391.926 52.4739C393.984 50.4474 395.164 47.6921 395.213 44.8022V29.3785C395.164 26.4886 393.984 23.7333 391.926 21.7068C389.868 19.6803 387.097 18.5448 384.21 18.5452L358.721 18.6554Z" fill="#FF6099"/>
<path d="M233.915 0C256.91 0 263.255 16.5254 263.255 34.7767C263.255 45.7937 263.255 53.1383 254.306 60.4829C250.015 64.1552 247.228 62.0252 247.228 67.8275C247.228 73.6297 249.245 81.8924 254.306 81.8924C255.982 81.8351 257.644 81.5761 259.257 81.1212C264.209 81.1212 264.979 85.2709 264.979 92.3952C264.979 95.7737 264.979 99.9602 264.979 104.587C264.979 107.672 263.732 110.463 255.7 110.463C241.507 110.463 234.245 99.9602 231.311 88.4291C227.643 74.0337 222.986 71.5732 222.069 71.5732C221.152 71.5732 220.822 74.0337 220.822 75.2455V97.2794C220.822 103.486 220.822 109.655 211.58 109.655H200.724C194.563 109.655 194.562 103.486 194.562 97.2794V12.3757C194.562 6.16947 194.563 0 203.805 0H233.915ZM220.639 27.5056C220.639 29.5253 220.639 33.0508 220.639 36.3191C220.639 39.5875 220.639 42.1581 220.639 44.0309C220.639 49.1355 221.555 50.0535 227.754 50.0535C234.685 50.0535 236.225 43.2598 236.225 36.3191C236.225 29.3784 234.685 20.8587 227.754 20.8587C221.555 20.8587 220.639 22.0338 220.639 27.5056Z" fill="black"/>
<path d="M110.246 250.892C110.246 257.061 110.246 263.231 100.967 263.231H93.2651C83.9863 263.231 83.9863 257.061 83.9863 250.892V165.915C83.9863 159.745 83.9863 153.539 93.2651 153.539H100.93C110.209 153.539 110.209 159.745 110.209 165.915L110.246 250.892Z" fill="black"/>
<path d="M182.459 152.768C195.258 152.768 203.914 155.082 203.914 159.415V171.313C203.914 173.002 203.29 175.94 198.046 175.94H196.799C194.342 175.94 188.767 174.251 184.293 174.251C180.625 174.251 177.691 175.5 177.691 180.421C177.691 185.341 179.048 187.765 185.026 192.649C203.364 207.779 207.031 218.613 207.031 231.098C207.031 238.223 207.031 244.723 202.887 250.745C198.912 256.438 193.052 260.536 186.346 262.313C181.538 263.445 176.615 264.012 171.676 264.002C160.234 264.002 149.121 261.836 149.121 255.666V243.768C149.121 241.932 150.661 240.095 154.842 240.095C159.023 240.095 162.177 242.409 171.053 242.409C175.344 242.409 181.212 239.031 181.212 234.22C181.212 230.547 181.212 228.05 171.676 218.796C157.3 204.731 150.515 198.231 150.515 185.745C150.515 155.082 170.099 152.768 182.459 152.768Z" fill="black"/>
<path d="M272.276 251.957C271.983 257.833 271.653 263.231 263.034 263.231H255.296C246.054 263.231 246.054 257.061 246.054 250.892V180.274C246.054 176.418 245.283 175.5 242.019 175.5C240.956 175.5 239.415 175.5 237.545 175.5C233.877 175.5 230.613 174.875 230.613 171.166V158.203C230.613 155.082 234.024 153.539 237.948 153.539H280.638C284.306 153.539 287.973 155.082 287.973 158.203V171.313C287.973 174.985 284.892 175.646 281.005 175.646C279.941 175.646 278.548 175.646 276.714 175.646C272.826 175.646 272.533 176.565 272.533 180.42L272.276 251.957Z" fill="black"/>
<path d="M131.37 297.677C135.221 297.677 137.238 299.513 137.238 302.598V316.186C137.238 317.728 137.238 320.078 131.37 320.078C128.289 320.078 128.143 319.748 126.419 319.748C111.749 319.748 111.749 346.482 111.749 352.027C111.749 357.572 111.749 386.033 125.796 386.033C127.776 386.033 127.776 385.739 131.333 385.739C137.202 385.739 137.201 391.284 137.201 392.827V403.183C137.301 403.972 137.217 404.773 136.955 405.524C136.693 406.275 136.261 406.955 135.692 407.51C135.123 408.065 134.434 408.481 133.677 408.724C132.921 408.967 132.119 409.031 131.333 408.911C109.328 408.911 83.9492 398.849 83.9492 351.734C83.9859 307.703 109.475 297.677 131.37 297.677Z" fill="black"/>
<path d="M350.617 347.878C351.057 347.878 351.387 347.4 351.387 346.335V310.787C351.387 304.618 351.387 298.448 360.629 298.448H368.331C377.61 298.448 377.61 304.618 377.61 310.787V395.764C377.61 401.934 377.61 408.14 368.331 408.14C354.468 408.14 353.367 405.643 351.203 401.016L330.702 356.214C330.225 355.296 329.785 354.671 329.455 354.671C329.125 354.671 328.832 355.296 328.832 356.214V395.618C328.832 401.787 328.832 407.993 319.553 407.993H311.851C302.572 407.993 302.572 401.787 302.572 395.618V310.787C302.572 304.618 302.572 298.448 311.851 298.448H320.03C325.127 298.448 326.815 299.036 329.125 303.847L349.223 346.335C349.663 347.4 350.323 347.878 350.617 347.878Z" fill="black"/>
<path d="M165.259 105.836H83.7301C82.2522 105.842 80.797 105.471 79.5021 104.758C78.2072 104.045 77.1153 103.012 76.3297 101.759C75.5441 100.505 75.0906 99.0721 75.0122 97.5943C74.9338 96.1165 75.2331 94.6431 75.8816 93.3133L116.664 9.51131C117.375 8.03586 118.486 6.791 119.871 5.9198C121.256 5.04861 122.859 4.58646 124.494 4.58646C126.13 4.58646 127.733 5.04861 129.118 5.9198C130.503 6.791 131.615 8.03586 132.325 9.51131L173.107 93.3133C173.756 94.6431 174.055 96.1165 173.977 97.5943C173.898 99.0721 173.445 100.505 172.659 101.759C171.874 103.012 170.782 104.045 169.487 104.758C168.192 105.471 166.737 105.842 165.259 105.836Z" fill="#8B8BFF"/>
<path d="M380.945 256.106H299.416C297.943 256.094 296.498 255.708 295.214 254.985C293.93 254.262 292.85 253.225 292.073 251.972C291.297 250.718 290.851 249.288 290.775 247.815C290.7 246.342 290.998 244.874 291.641 243.547L332.351 159.782C333.061 158.306 334.172 157.062 335.557 156.19C336.943 155.319 338.545 154.857 340.181 154.857C341.817 154.857 343.419 155.319 344.804 156.19C346.189 157.062 347.301 158.306 348.011 159.782L388.794 243.547C389.44 244.879 389.738 246.354 389.659 247.833C389.58 249.312 389.127 250.747 388.342 252.002C387.557 253.258 386.467 254.293 385.173 255.011C383.879 255.729 382.424 256.106 380.945 256.106Z" fill="#6CE720"/>
<path d="M225.406 407.038C255.566 407.038 280.015 382.557 280.015 352.358C280.015 322.159 255.566 297.677 225.406 297.677C195.246 297.677 170.797 322.159 170.797 352.358C170.797 382.557 195.246 407.038 225.406 407.038Z" fill="#FFE920"/>
</svg>
