<svg width="570" height="570" viewBox="0 0 570 570" fill="none" xmlns="http://www.w3.org/2000/svg">
<circle cx="285" cy="285" r="285" fill="#FFE920" fill-opacity="0.08"/>
<g clip-path="url(#clip0_404_928)">
<path d="M394.153 124.167H340.121C337.679 124.231 335.356 125.231 333.629 126.96C331.903 128.689 330.904 131.016 330.84 133.46V146.858C330.881 149.336 331.882 151.7 333.631 153.452C335.381 155.204 337.742 156.206 340.216 156.247H352.612C355.14 156.247 357.566 157.253 359.354 159.043C361.142 160.834 362.147 163.262 362.147 165.794V178.206C362.194 180.656 363.181 182.994 364.903 184.736C366.625 186.478 368.949 187.49 371.396 187.563H384.776C387.278 187.563 389.68 186.579 391.463 184.823C393.247 183.067 394.27 180.679 394.312 178.174V165.763C394.312 163.23 395.316 160.802 397.104 159.011C398.892 157.221 401.318 156.215 403.847 156.215H416.242C418.744 156.215 421.145 155.231 422.929 153.475C424.713 151.719 425.736 149.331 425.777 146.827V133.46C425.736 130.956 424.713 128.568 422.929 126.812C421.145 125.055 418.744 124.071 416.242 124.072L394.153 124.167Z" fill="#FF6099"/>
<path d="M285.992 108C305.921 108 311.419 122.321 311.419 138.138C311.419 147.686 311.419 154.051 303.664 160.416C299.945 163.598 297.53 161.753 297.53 166.781C297.53 171.809 299.278 178.97 303.664 178.97C305.116 178.92 306.557 178.696 307.955 178.302C312.246 178.302 312.913 181.898 312.913 188.072C312.913 191 312.913 194.628 312.913 198.638C312.913 201.311 311.832 203.73 304.872 203.73C292.572 203.73 286.278 194.628 283.736 184.635C280.557 172.159 276.521 170.027 275.726 170.027C274.932 170.027 274.646 172.159 274.646 173.21V192.305C274.646 197.683 274.646 203.03 266.636 203.03H257.228C251.889 203.03 251.889 197.683 251.889 192.305V118.725C251.889 113.347 251.889 108 259.898 108H285.992ZM274.487 131.837C274.487 133.587 274.487 136.643 274.487 139.475C274.487 142.307 274.487 144.535 274.487 146.158C274.487 150.582 275.281 151.378 280.653 151.378C286.66 151.378 287.995 145.49 287.995 139.475C287.995 133.46 286.66 126.077 280.653 126.077C275.281 126.077 274.487 127.095 274.487 131.837Z" fill="#111827"/>
<path d="M178.82 325.429C178.82 330.776 178.82 336.122 170.778 336.122H164.104C156.063 336.122 156.062 330.776 156.062 325.429V251.786C156.062 246.439 156.063 241.061 164.104 241.061H170.747C178.788 241.061 178.788 246.439 178.788 251.786L178.82 325.429Z" fill="#111827"/>
<path d="M241.401 240.392C252.493 240.392 259.994 242.397 259.994 246.153V256.464C259.994 257.928 259.454 260.474 254.909 260.474H253.828C251.699 260.474 246.868 259.01 242.99 259.01C239.812 259.01 237.269 260.092 237.269 264.357C237.269 268.621 238.445 270.722 243.626 274.954C259.518 288.066 262.696 297.455 262.696 308.275C262.696 314.449 262.696 320.082 259.104 325.302C255.66 330.235 250.581 333.787 244.77 335.327C240.603 336.308 236.337 336.799 232.057 336.791C222.14 336.791 212.51 334.913 212.51 329.566V319.255C212.51 317.664 213.845 316.072 217.468 316.072C221.091 316.072 223.825 318.077 231.516 318.077C235.235 318.077 240.32 315.15 240.32 310.98C240.32 307.798 240.32 305.634 232.057 297.614C219.598 285.425 213.718 279.792 213.718 268.971C213.718 242.397 230.69 240.392 241.401 240.392Z" fill="#111827"/>
<path d="M319.239 326.352C318.985 331.444 318.699 336.122 311.229 336.122H304.523C296.514 336.122 296.514 330.776 296.514 325.429V264.229C296.514 260.888 295.846 260.092 293.017 260.092C292.096 260.092 290.761 260.092 289.14 260.092C285.962 260.092 283.133 259.551 283.133 256.337V245.102C283.133 242.397 286.089 241.061 289.49 241.061H326.486C329.664 241.061 332.842 242.397 332.842 245.102V256.464C332.842 259.647 330.172 260.219 326.803 260.219C325.882 260.219 324.674 260.219 323.085 260.219C319.716 260.219 319.461 261.015 319.461 264.357L319.239 326.352Z" fill="#111827"/>
<path d="M197.125 365.974C200.463 365.974 202.211 367.565 202.211 370.239V382.014C202.211 383.351 202.211 385.388 197.125 385.388C194.456 385.388 194.328 385.101 192.835 385.101C180.121 385.101 180.121 408.27 180.121 413.075C180.121 417.881 180.121 442.545 192.294 442.545C194.011 442.545 194.011 442.291 197.094 442.291C202.179 442.291 202.179 447.096 202.179 448.433V457.408C202.266 458.092 202.192 458.786 201.965 459.437C201.739 460.088 201.364 460.677 200.871 461.158C200.378 461.639 199.78 461.999 199.125 462.21C198.47 462.421 197.774 462.476 197.094 462.372C178.024 462.372 156.029 453.652 156.029 412.821C156.061 374.662 178.151 365.974 197.125 365.974Z" fill="#111827"/>
<path d="M387.129 409.479C387.51 409.479 387.796 409.065 387.796 408.142V377.336C387.796 371.989 387.796 366.642 395.806 366.642H402.48C410.521 366.642 410.521 371.989 410.521 377.336V450.979C410.521 456.326 410.521 461.704 402.48 461.704C390.466 461.704 389.512 459.54 387.637 455.53L369.87 416.703C369.457 415.908 369.076 415.367 368.79 415.367C368.503 415.367 368.249 415.908 368.249 416.703V450.852C368.249 456.198 368.249 461.577 360.208 461.577H353.533C345.492 461.577 345.492 456.198 345.492 450.852V377.336C345.492 371.989 345.492 366.642 353.533 366.642H360.621C365.039 366.642 366.501 367.152 368.503 371.321L385.921 408.142C386.302 409.065 386.874 409.479 387.129 409.479Z" fill="#111827"/>
<path d="M226.494 199.72H155.839C154.558 199.726 153.297 199.404 152.175 198.786C151.053 198.168 150.107 197.273 149.426 196.187C148.745 195.1 148.352 193.858 148.284 192.578C148.216 191.297 148.475 190.02 149.037 188.868L184.381 116.243C184.996 114.964 185.959 113.885 187.16 113.13C188.36 112.375 189.749 111.975 191.167 111.975C192.584 111.975 193.973 112.375 195.173 113.13C196.374 113.885 197.337 114.964 197.952 116.243L233.296 188.868C233.858 190.02 234.117 191.297 234.049 192.578C233.981 193.858 233.588 195.1 232.907 196.187C232.226 197.273 231.28 198.168 230.158 198.786C229.036 199.404 227.775 199.726 226.494 199.72Z" fill="#8B8BFF"/>
<path d="M413.413 329.948H342.758C341.482 329.937 340.229 329.603 339.116 328.976C338.004 328.35 337.067 327.451 336.395 326.365C335.722 325.278 335.335 324.039 335.27 322.763C335.204 321.486 335.462 320.214 336.02 319.064L371.3 246.471C371.915 245.192 372.879 244.113 374.079 243.358C375.28 242.603 376.668 242.203 378.086 242.203C379.503 242.203 380.892 242.603 382.093 243.358C383.293 244.113 384.256 245.192 384.872 246.471L420.215 319.064C420.775 320.219 421.033 321.497 420.965 322.778C420.896 324.06 420.503 325.303 419.823 326.392C419.144 327.48 418.199 328.377 417.077 328.999C415.956 329.621 414.695 329.948 413.413 329.948Z" fill="#6CE720"/>
<path d="M278.619 460.749C304.756 460.749 325.944 439.533 325.944 413.362C325.944 387.19 304.756 365.974 278.619 365.974C252.481 365.974 231.293 387.19 231.293 413.362C231.293 439.533 252.481 460.749 278.619 460.749Z" fill="#FFE920"/>
</g>
<defs>
<clipPath id="clip0_404_928">
<rect width="363" height="354.777" fill="white" transform="translate(104 108)"/>
</clipPath>
</defs>
</svg>
