<svg width="20" height="20" viewBox="0 0 20 20" fill="none" xmlns="http://www.w3.org/2000/svg">
<path d="M18.3337 2.5H13.3337C12.4496 2.5 11.6018 2.85119 10.9766 3.47631C10.3515 4.10143 10.0003 4.94928 10.0003 5.83333V17.5C10.0003 16.837 10.2637 16.2011 10.7326 15.7322C11.2014 15.2634 11.8373 15 12.5003 15H18.3337V2.5Z" stroke="#D1D5DB" stroke-width="1.5" stroke-linecap="round" stroke-linejoin="round"/>
<path d="M1.66699 2.5H6.66699C7.55105 2.5 8.39889 2.85119 9.02402 3.47631C9.64914 4.10143 10.0003 4.94928 10.0003 5.83333V17.5C10.0003 16.837 9.73693 16.2011 9.26809 15.7322C8.79925 15.2634 8.16337 15 7.50033 15H1.66699V2.5Z" stroke="#D1D5DB" stroke-width="1.5" stroke-linecap="round" stroke-linejoin="round"/>
</svg>
