<svg width="21" height="21" viewBox="0 0 21 21" fill="none" xmlns="http://www.w3.org/2000/svg">
<g clip-path="url(#clip0_444_3745)">
<path d="M16.3799 3.34757C16.9361 3.57803 17.4415 3.91583 17.8671 4.34166C18.2929 4.76729 18.6307 5.27265 18.8612 5.82887C19.0917 6.38508 19.2103 6.98126 19.2103 7.58333C19.2103 8.1854 19.0917 8.78158 18.8612 9.33779C18.6307 9.89401 18.2929 10.3994 17.8671 10.825L16.9838 11.7083L10.5004 18.1917L4.01709 11.7083L3.13376 10.825C2.27401 9.96525 1.79102 8.79919 1.79102 7.58333C1.79102 6.36747 2.27401 5.20141 3.13376 4.34166C3.9935 3.48192 5.15956 2.99892 6.37542 2.99892C7.59129 2.99892 8.75735 3.48192 9.61709 4.34166L10.5004 5.225L11.3838 4.34166C11.8094 3.91583 12.3147 3.57803 12.871 3.34757C13.4272 3.1171 14.0234 2.99847 14.6254 2.99847C15.2275 2.99847 15.8237 3.1171 16.3799 3.34757Z" stroke="#111827" stroke-width="2" stroke-linecap="round" stroke-linejoin="round"/>
</g>
<defs>
<clipPath id="clip0_444_3745">
<rect width="20" height="20" fill="white" transform="translate(0.5 0.5)"/>
</clipPath>
</defs>
</svg>
