<svg width="20" height="20" viewBox="0 0 20 20" fill="none" xmlns="http://www.w3.org/2000/svg">
<path d="M15.8799 2.84757C16.4361 3.07803 16.9415 3.41583 17.3671 3.84166C17.7929 4.26729 18.1307 4.77265 18.3612 5.32887C18.5917 5.88508 18.7103 6.48126 18.7103 7.08333C18.7103 7.6854 18.5917 8.28158 18.3612 8.83779C18.1307 9.39401 17.7929 9.89937 17.3671 10.325L16.4838 11.2083L10.0004 17.6917L3.51709 11.2083L2.63376 10.325C1.77401 9.46525 1.29102 8.29919 1.29102 7.08333C1.29102 5.86747 1.77401 4.70141 2.63376 3.84166C3.4935 2.98192 4.65956 2.49892 5.87542 2.49892C7.09129 2.49892 8.25735 2.98192 9.11709 3.84166L10.0004 4.725L10.8838 3.84166C11.3094 3.41583 11.8147 3.07803 12.371 2.84757C12.9272 2.6171 13.5234 2.49847 14.1254 2.49847C14.7275 2.49847 15.3237 2.6171 15.8799 2.84757Z" stroke="#FF6099" stroke-width="2" stroke-linecap="round" stroke-linejoin="round"/>
</svg>
