<svg width="21" height="21" viewBox="0 0 21 21" fill="none" xmlns="http://www.w3.org/2000/svg">
<g clip-path="url(#clip0_482_2201)">
<path d="M16.3799 3.34763C16.9361 3.5781 17.4415 3.91589 17.8671 4.34172C18.2929 4.76735 18.6307 5.27271 18.8612 5.82893C19.0917 6.38514 19.2103 6.98132 19.2103 7.58339C19.2103 8.18546 19.0917 8.78164 18.8612 9.33785C18.6307 9.89407 18.2929 10.3994 17.8671 10.8251L16.9838 11.7084L10.5004 18.1917L4.01709 11.7084L3.13376 10.8251C2.27401 9.96531 1.79102 8.79925 1.79102 7.58339C1.79102 6.36753 2.27401 5.20147 3.13376 4.34172C3.9935 3.48198 5.15956 2.99898 6.37542 2.99898C7.59129 2.99898 8.75735 3.48198 9.61709 4.34172L10.5004 5.22506L11.3838 4.34172C11.8094 3.91589 12.3147 3.5781 12.871 3.34763C13.4272 3.11716 14.0234 2.99854 14.6254 2.99854C15.2275 2.99854 15.8237 3.11716 16.3799 3.34763Z" fill="#FF6099" stroke="#FF6099" stroke-width="2" stroke-linecap="round" stroke-linejoin="round"/>
</g>
<defs>
<clipPath id="clip0_482_2201">
<rect width="20" height="20" fill="white" transform="translate(0.5 0.5)"/>
</clipPath>
</defs>
</svg>
