<svg width="20" height="20" viewBox="0 0 20 20" fill="none" xmlns="http://www.w3.org/2000/svg">
<path d="M15.8799 2.84763C16.4361 3.0781 16.9415 3.41589 17.3671 3.84172C17.7929 4.26735 18.1307 4.77271 18.3612 5.32893C18.5917 5.88514 18.7103 6.48132 18.7103 7.08339C18.7103 7.68546 18.5917 8.28164 18.3612 8.83785C18.1307 9.39407 17.7929 9.89943 17.3671 10.3251L16.4838 11.2084L10.0004 17.6917L3.51709 11.2084L2.63376 10.3251C1.77401 9.46531 1.29102 8.29925 1.29102 7.08339C1.29102 5.86753 1.77401 4.70147 2.63376 3.84172C3.4935 2.98198 4.65956 2.49898 5.87542 2.49898C7.09129 2.49898 8.25735 2.98198 9.11709 3.84172L10.0004 4.72506L10.8838 3.84172C11.3094 3.41589 11.8147 3.0781 12.371 2.84763C12.9272 2.61716 13.5234 2.49854 14.1254 2.49854C14.7275 2.49854 15.3237 2.61716 15.8799 2.84763Z" stroke="#D1D5DB" stroke-width="2" stroke-linecap="round" stroke-linejoin="round"/>
</svg>
