<svg width="21" height="21" viewBox="0 0 21 21" fill="none" xmlns="http://www.w3.org/2000/svg">
<g clip-path="url(#clip0_482_3311)">
<path d="M14.666 1.68262H6.33268C4.0315 1.68262 2.16602 3.5481 2.16602 5.84928V14.1826C2.16602 16.4838 4.0315 18.3493 6.33268 18.3493H14.666C16.9672 18.3493 18.8327 16.4838 18.8327 14.1826V5.84928C18.8327 3.5481 16.9672 1.68262 14.666 1.68262Z" stroke="#FF6099" stroke-width="1.5" stroke-linecap="round" stroke-linejoin="round"/>
<path d="M13.8337 9.49088C13.9366 10.1844 13.8181 10.8927 13.4952 11.5151C13.1723 12.1374 12.6614 12.6421 12.0351 12.9573C11.4088 13.2725 10.6991 13.3822 10.0069 13.2708C9.31468 13.1594 8.67521 12.8326 8.17944 12.3368C7.68367 11.8411 7.35685 11.2016 7.24546 10.5094C7.13408 9.81717 7.24379 9.10745 7.55901 8.48119C7.87423 7.85492 8.3789 7.34399 9.00123 7.02108C9.62356 6.69816 10.3319 6.5797 11.0254 6.68254C11.7328 6.78745 12.3878 7.1171 12.8935 7.6228C13.3992 8.1285 13.7288 8.78344 13.8337 9.49088Z" stroke="#FF6099" stroke-width="1.5" stroke-linecap="round" stroke-linejoin="round"/>
<path d="M15.084 5.43262H15.0923" stroke="#FF6099" stroke-width="2" stroke-linecap="round" stroke-linejoin="round"/>
</g>
<defs>
<clipPath id="clip0_482_3311">
<rect width="20" height="20" fill="white" transform="translate(0.5 0.0161133)"/>
</clipPath>
</defs>
</svg>
