<svg width="20" height="20" viewBox="0 0 20 20" fill="none" xmlns="http://www.w3.org/2000/svg">
<g clip-path="url(#clip0_482_1990)">
<path d="M2.5 8.33333V16.6667C2.5 17.1087 2.67559 17.5326 2.98816 17.8452C3.30072 18.1577 3.72464 18.3333 4.16667 18.3333H15.8333C16.2754 18.3333 16.6993 18.1577 17.0118 17.8452C17.3244 17.5326 17.5 17.1087 17.5 16.6667V8.33333M7.5 18.3333V10.8333H10H12.5V18.3333" stroke="white" stroke-width="1.5" stroke-linecap="round" stroke-linejoin="round"/>
<path d="M1.75065 1.66667L1.22237 4.30807C0.964078 5.59954 0.663222 7.17459 1.75102 7.91708C2.13397 8.17846 2.60991 8.33334 3.12565 8.33334C4.3913 8.33334 5.41732 7.4006 5.41732 6.25C5.41732 7.4006 6.44333 8.33334 7.70898 8.33334C8.97464 8.33334 10.0007 7.4006 10.0007 6.25C10.0007 7.4006 11.0267 8.33334 12.2923 8.33334C13.558 8.33334 14.584 7.4006 14.584 6.25C14.584 7.4006 15.61 8.33334 16.8757 8.33334C17.3914 8.33334 17.8673 8.17846 18.2503 7.91708C19.3381 7.17459 19.0372 5.59954 18.7789 4.30807L18.2507 1.66667H1.75065Z" stroke="white" stroke-width="1.5" stroke-linecap="round" stroke-linejoin="round"/>
</g>
<defs>
<clipPath id="clip0_482_1990">
<rect width="20" height="20" fill="white"/>
</clipPath>
</defs>
</svg>
