<svg width="21" height="21" viewBox="0 0 21 21" fill="none" xmlns="http://www.w3.org/2000/svg">
<g clip-path="url(#clip0_482_3307)">
<path d="M19.6673 2.51619C18.8693 3.07909 17.9857 3.50962 17.0507 3.79119C16.5488 3.21412 15.8818 2.8051 15.1398 2.61946C14.3979 2.43383 13.6169 2.48052 12.9024 2.75324C12.1879 3.02595 11.5744 3.51153 11.1448 4.14429C10.7153 4.77705 10.4904 5.52647 10.5007 6.29119V7.12453C9.03618 7.1625 7.58505 6.8377 6.27649 6.17906C4.96794 5.52042 3.84258 4.54839 3.00065 3.34953C3.00065 3.34953 -0.332682 10.8495 7.16732 14.1829C5.45109 15.3478 3.40662 15.932 1.33398 15.8495C8.83398 20.0162 18.0007 15.8495 18.0007 6.26619C17.9999 6.03407 17.9776 5.80252 17.934 5.57453C18.7845 4.73577 19.3847 3.67679 19.6673 2.51619V2.51619Z" stroke="#FF6099" stroke-width="1.5" stroke-linecap="round" stroke-linejoin="round"/>
</g>
<defs>
<clipPath id="clip0_482_3307">
<rect width="20" height="20" fill="white" transform="translate(0.5 0.0161133)"/>
</clipPath>
</defs>
</svg>
