<svg width="16" height="16" viewBox="0 0 16 16" fill="none" xmlns="http://www.w3.org/2000/svg">
<path d="M6.00065 7.33333C7.47341 7.33333 8.66732 6.13943 8.66732 4.66667C8.66732 3.19391 7.47341 2 6.00065 2C4.52789 2 3.33398 3.19391 3.33398 4.66667C3.33398 6.13943 4.52789 7.33333 6.00065 7.33333Z" stroke="#D1D5DB" stroke-width="1.5" stroke-linecap="round" stroke-linejoin="round"/>
<path d="M2 14V12.6667C2 11.9594 2.28095 11.2811 2.78105 10.781C3.28115 10.281 3.95942 10 4.66667 10H7.33333C8.04058 10 8.71885 10.281 9.21895 10.781C9.71905 11.2811 10 11.9594 10 12.6667V14" stroke="#D1D5DB" stroke-width="1.5" stroke-linecap="round" stroke-linejoin="round"/>
<path d="M10.666 2.08667C11.2396 2.23354 11.748 2.56714 12.1111 3.03488C12.4742 3.50262 12.6712 4.07789 12.6712 4.67C12.6712 5.26212 12.4742 5.83739 12.1111 6.30513C11.748 6.77287 11.2396 7.10647 10.666 7.25334" stroke="#D1D5DB" stroke-width="1.5" stroke-linecap="round" stroke-linejoin="round"/>
<path d="M14 14V12.6666C13.9966 12.0781 13.7986 11.5072 13.4368 11.0429C13.0751 10.5786 12.5699 10.2471 12 10.1" stroke="#D1D5DB" stroke-width="1.5" stroke-linecap="round" stroke-linejoin="round"/>
</svg>
