<svg width="170" height="193" viewBox="0 0 170 193" fill="none" xmlns="http://www.w3.org/2000/svg">
<path d="M85 186.094C123.108 186.094 154 155.201 154 117.094C154 78.9859 123.108 48.0935 85 48.0935C46.8923 48.0935 16 78.9859 16 117.094C16 155.201 46.8923 186.094 85 186.094Z" fill="black"/>
<path d="M54.8117 121.074C61.2241 121.074 66.4223 115.876 66.4223 109.464C66.4223 103.051 61.2241 97.853 54.8117 97.853C48.3994 97.853 43.2012 103.051 43.2012 109.464C43.2012 115.876 48.3994 121.074 54.8117 121.074Z" fill="#FFE920"/>
<path d="M89.433 136.967H72.0635C71.2788 136.947 70.5319 136.634 69.9768 136.092C69.4217 135.55 69.1007 134.82 69.0801 134.054V129.854C69.0932 129.077 69.415 128.336 69.9774 127.787C70.5399 127.238 71.2989 126.924 72.0942 126.911H76.079C76.8919 126.911 77.6716 126.595 78.2464 126.034C78.8212 125.473 79.1442 124.711 79.1442 123.918V120.027C79.1596 119.259 79.4768 118.526 80.0303 117.98C80.5837 117.434 81.331 117.116 82.1174 117.093H86.4189C87.2231 117.093 87.9951 117.402 88.5685 117.952C89.1419 118.503 89.4707 119.252 89.4841 120.037V123.928C89.4841 124.721 89.8071 125.483 90.3819 126.044C90.9567 126.605 91.7364 126.921 92.5493 126.921H96.5341C97.3383 126.921 98.1103 127.229 98.6837 127.78C99.2571 128.33 99.5859 129.079 99.5993 129.864V134.054C99.5859 134.839 99.2571 135.588 98.6837 136.138C98.1103 136.689 97.3383 136.997 96.5341 136.997L89.433 136.967Z" fill="#FF6099"/>
<path d="M85.9003 50.0837H50.9284C50.2944 50.0864 49.6702 49.9308 49.1148 49.6317C48.5593 49.3325 48.091 48.8996 47.754 48.3739C47.417 47.8483 47.2225 47.2471 47.1888 46.6274C47.1552 46.0076 47.2836 45.3897 47.5618 44.832L65.0556 9.68756C65.3602 9.06879 65.837 8.54672 66.4312 8.18137C67.0253 7.81601 67.7127 7.62219 68.4144 7.62219C69.116 7.62219 69.8034 7.81601 70.3976 8.18137C70.9917 8.54672 71.4685 9.06879 71.7731 9.68756L89.267 44.832C89.5452 45.3897 89.6735 46.0076 89.6399 46.6274C89.6062 47.2471 89.4117 47.8483 89.0747 48.3739C88.7378 48.8996 88.2694 49.3325 87.714 49.6317C87.1585 49.9308 86.5343 50.0864 85.9003 50.0837V50.0837Z" fill="black"/>
<path d="M119.736 50.0837H84.7643C84.1304 50.0864 83.5062 49.9308 82.9507 49.6317C82.3953 49.3325 81.9269 48.8996 81.5899 48.3739C81.2529 47.8483 81.0584 47.2471 81.0248 46.6274C80.9912 46.0076 81.1195 45.3897 81.3977 44.832L98.8915 9.68756C99.1962 9.06879 99.6729 8.54672 100.267 8.18137C100.861 7.81601 101.549 7.62219 102.25 7.62219C102.952 7.62219 103.639 7.81601 104.234 8.18137C104.828 8.54672 105.304 9.06879 105.609 9.68756L123.103 44.832C123.381 45.3897 123.509 46.0076 123.476 46.6274C123.442 47.2471 123.248 47.8483 122.911 48.3739C122.574 48.8996 122.105 49.3325 121.55 49.6317C120.994 49.9308 120.37 50.0864 119.736 50.0837V50.0837Z" fill="black"/>
<path d="M126.8 119.573L126.8 99.3544C126.802 98.9879 126.712 98.627 126.539 98.3059C126.366 97.9848 126.115 97.714 125.812 97.5192C125.508 97.3244 125.16 97.2119 124.802 97.1925C124.444 97.173 124.086 97.2472 123.764 97.4081L103.446 107.522C103.088 107.698 102.786 107.973 102.575 108.317C102.364 108.66 102.252 109.058 102.252 109.463C102.252 109.869 102.364 110.267 102.575 110.61C102.786 110.954 103.088 111.229 103.446 111.405L123.764 121.519C124.086 121.68 124.444 121.754 124.802 121.734C125.16 121.715 125.508 121.603 125.812 121.408C126.115 121.213 126.366 120.942 126.539 120.621C126.712 120.3 126.802 119.939 126.8 119.573V119.573Z" fill="#6CE720"/>
</svg>
